<svg version="1.0" xmlns="http://www.w3.org/2000/svg"
 width="33.000000pt" height="33.000000pt" viewBox="0 0 33.000000 33.000000"
 preserveAspectRatio="xMidYMid meet">

<g transform="translate(0.000000,33.000000) scale(0.100000,-0.100000)"
fill="#000000" stroke="none">
<path d="M1343 4419 c-76 -13 -168 -53 -227 -97 -80 -61 -295 -281 -336 -344
-107 -164 -113 -378 -17 -563 25 -48 104 -133 392 -425 213 -215 366 -378 374
-397 11 -27 11 -39 0 -65 -8 -20 -161 -183 -374 -398 -383 -388 -401 -410
-441 -545 -12 -40 -18 -91 -17 -155 0 -112 30 -212 88 -295 47 -69 319 -335
375 -368 121 -70 296 -91 425 -53 135 40 157 58 545 441 215 213 378 366 398
374 26 11 38 11 65 0 19 -8 182 -161 397 -374 386 -381 413 -403 540 -439 133
-37 270 -25 397 34 58 28 92 57 239 204 146 146 176 181 204 239 59 126 71
264 34 397 -36 127 -58 154 -439 540 -213 215 -366 378 -374 398 -11 26 -11
38 0 65 8 19 161 182 374 397 383 388 401 410 441 545 12 40 18 91 17 155 0
112 -30 212 -88 296 -50 73 -289 310 -357 354 -163 107 -379 113 -563 17 -48
-25 -133 -104 -425 -392 -215 -213 -378 -366 -397 -374 -27 -11 -39 -11 -65 0
-20 8 -183 161 -398 374 -385 380 -411 401 -538 439 -69 20 -183 27 -249 15z"/>
</g>
</svg>
