<?xml version="1.0" standalone="no"?>
<!DOCTYPE svg PUBLIC "-//W3C//DTD SVG 20010904//EN"
 "http://www.w3.org/TR/2001/REC-SVG-20010904/DTD/svg10.dtd">
<svg version="1.0" xmlns="http://www.w3.org/2000/svg"
 width="1470.000000pt" height="400.000000pt" viewBox="0 0 1470.000000 400.000000"
 preserveAspectRatio="xMidYMid meet">

<g transform="translate(0.000000,400.000000) scale(0.100000,-0.100000)"
fill="#000000" stroke="none">
<path d="M8755 3674 c-477 -52 -903 -346 -1096 -758 -89 -192 -131 -378 -131
-591 1 -311 88 -570 278 -822 l64 -85 0 -196 c1 -212 3 -222 54 -242 29 -11
53 -3 89 28 14 13 17 33 17 139 l0 124 39 -28 39 -28 4 -93 c3 -88 5 -95 31
-118 57 -49 133 -16 144 63 l6 42 30 -16 c49 -25 188 -70 279 -90 126 -27 416
-24 557 6 388 83 726 341 906 693 110 213 149 382 149 633 0 239 -33 384 -134
590 -218 443 -673 735 -1169 750 -64 1 -134 1 -156 -1z m415 -48 c171 -39 299
-94 439 -189 238 -160 420 -392 515 -656 47 -130 68 -246 73 -401 8 -219 -19
-374 -101 -575 -129 -318 -400 -582 -736 -719 -278 -114 -650 -119 -933 -15
-139 51 -137 49 -137 126 0 56 5 73 31 116 30 50 32 77 5 77 -8 0 -20 -8 -25
-18 -7 -12 -10 125 -11 440 l0 457 58 32 c116 66 227 212 272 358 l17 54 35
-59 c118 -197 159 -277 149 -287 -33 -33 5 -107 54 -107 31 0 75 41 75 70 0
22 -41 70 -60 70 -7 0 -11 102 -12 308 l-3 307 -5 -309 c-3 -193 -9 -311 -15
-312 -14 -5 -215 348 -215 376 0 12 -13 34 -28 48 -16 15 -70 99 -121 187
-102 176 -99 171 -107 163 -3 -4 35 -77 85 -162 90 -156 91 -157 67 -166 -31
-11 -33 -15 -56 -105 -26 -102 -71 -184 -136 -245 -47 -44 -57 -50 -81 -43
-15 4 -100 8 -188 8 -155 0 -162 -1 -217 -28 -31 -15 -63 -39 -72 -52 -16 -24
-21 -25 -112 -25 -93 0 -95 -1 -92 -22 3 -21 9 -23 73 -26 l71 -3 -41 -81
c-57 -115 -56 -166 4 -268 25 -41 69 -101 99 -132 l54 -57 -46 -28 c-25 -15
-48 -34 -51 -41 -10 -26 29 -25 77 1 l48 27 0 -133 -1 -132 -25 30 c-127 150
-231 367 -276 575 -30 137 -30 396 -1 530 25 111 73 250 115 335 180 358 544
636 928 708 133 25 136 26 300 21 118 -3 180 -9 260 -28z m-1300 -1532 c0
-166 -4 -172 -59 -79 l-35 58 18 51 c21 59 54 116 67 116 5 0 9 -64 9 -146z
m236 -397 c2 -7 3 -113 2 -235 l-3 -223 -37 28 -37 28 -1 188 c0 111 4 196 10
208 12 21 58 26 66 6z"/>
<path d="M8857 3623 c-13 -13 -8 -201 6 -206 31 -11 37 5 37 103 0 80 -3 99
-16 104 -19 7 -19 7 -27 -1z"/>
<path d="M8221 3451 c-17 -11 -13 -22 39 -112 39 -66 65 -85 76 -56 5 13 -83
177 -95 177 -3 0 -12 -4 -20 -9z"/>
<path d="M9493 3448 c-27 -35 -85 -160 -79 -173 13 -35 41 -3 99 111 19 38 23
54 14 63 -14 14 -22 14 -34 -1z"/>
<path d="M7747 2976 c-7 -18 12 -34 96 -80 67 -37 97 -41 97 -12 0 13 -156
106 -178 106 -5 0 -12 -6 -15 -14z"/>
<path d="M9890 2942 c-75 -48 -101 -82 -61 -82 33 0 173 90 169 108 -6 29 -31
22 -108 -26z"/>
<path d="M8003 2774 c-69 -34 -98 -134 -58 -201 75 -127 278 -73 278 72 0 110
-118 179 -220 129z"/>
<path d="M9962 2328 c3 -22 7 -23 103 -23 96 0 100 1 103 23 3 22 2 22 -103
22 -105 0 -106 0 -103 -22z"/>
<path d="M9821 1790 c-8 -4 -11 -15 -8 -23 7 -18 143 -97 168 -97 29 0 23 33
-9 50 -15 9 -52 30 -82 47 -36 21 -60 29 -69 23z"/>
<path d="M9410 1385 c-15 -18 77 -185 103 -185 27 0 20 31 -25 113 -46 81 -60
94 -78 72z"/>
<path d="M8850 1135 c0 -105 0 -106 23 -103 21 3 22 7 22 103 0 96 -1 100 -22
103 -23 3 -23 2 -23 -103z"/>
<path d="M671 2627 c-23 -61 -111 -314 -111 -320 0 -4 8 -7 18 -6 11 0 29 26
55 79 44 92 111 170 170 199 39 19 62 21 220 21 l177 0 0 -730 c0 -802 2 -773
-60 -805 -16 -8 -43 -15 -60 -15 -25 0 -30 -4 -30 -25 l0 -25 225 0 225 0 0
25 c0 21 -5 25 -30 25 -17 0 -44 7 -60 15 -62 32 -60 3 -60 805 l0 730 177 0
c158 0 181 -2 220 -21 59 -29 126 -107 170 -199 26 -53 44 -79 56 -79 9 -1 17
2 17 5 0 5 -98 284 -115 327 -7 16 -45 17 -601 17 l-594 0 -9 -23z"/>
<path d="M5911 2627 c-23 -61 -111 -314 -111 -320 0 -4 8 -7 18 -6 11 0 29 26
55 79 44 92 111 170 170 199 39 19 62 21 220 21 l177 0 0 -730 c0 -802 2 -773
-60 -805 -16 -8 -43 -15 -60 -15 -25 0 -30 -4 -30 -25 l0 -25 225 0 225 0 0
25 c0 21 -5 25 -30 25 -17 0 -44 7 -60 15 -62 32 -60 3 -60 805 l0 730 177 0
c158 0 181 -2 220 -21 59 -29 126 -107 170 -199 26 -53 44 -79 56 -79 9 -1 17
2 17 5 0 5 -98 284 -115 327 -7 16 -45 17 -601 17 l-594 0 -9 -23z"/>
<path d="M10640 2625 c0 -21 5 -25 31 -25 39 0 82 -25 103 -60 14 -25 16 -97
16 -715 0 -618 -2 -690 -16 -715 -21 -35 -64 -60 -103 -60 -27 0 -31 -4 -31
-26 l0 -26 368 5 c295 4 379 8 430 21 147 38 259 103 363 214 139 147 208 303
229 520 34 358 -118 661 -405 804 -149 75 -246 88 -677 88 l-308 0 0 -25z
m778 -57 c104 -37 176 -83 252 -159 82 -80 138 -174 182 -299 33 -94 33 -97
32 -275 0 -167 -2 -187 -28 -270 -44 -143 -98 -238 -191 -330 -90 -91 -165
-133 -291 -165 -63 -16 -110 -20 -256 -20 l-178 0 0 776 0 776 203 -4 c188 -3
207 -5 275 -30z"/>
<path d="M2195 2410 c-37 -38 -36 -82 1 -121 56 -59 154 -20 154 61 0 82 -98
120 -155 60z"/>
<path d="M4646 1999 c-170 -24 -323 -157 -377 -328 -24 -78 -28 -219 -9 -302
56 -240 268 -382 519 -348 115 16 203 73 258 167 21 36 24 46 12 53 -20 12
-23 10 -61 -46 -38 -55 -109 -109 -166 -125 -20 -5 -66 -10 -103 -10 -82 0
-152 32 -209 97 -81 93 -120 206 -120 355 l0 97 318 3 c371 3 357 0 349 88 -2
31 -15 76 -27 101 -29 59 -104 135 -161 164 -40 21 -65 27 -144 39 -11 2 -46
-1 -79 -5z m153 -63 c102 -65 153 -195 96 -251 l-24 -25 -230 0 -230 0 15 42
c37 104 132 212 219 245 52 20 111 16 154 -11z"/>
<path d="M3059 1989 c-25 -4 -63 -16 -85 -27 -39 -20 -116 -94 -148 -142 -15
-24 -16 -21 -16 74 0 89 -2 98 -17 92 -102 -37 -233 -92 -233 -97 0 -4 16 -10
35 -13 66 -13 65 -9 65 -426 0 -279 -3 -379 -12 -388 -7 -7 -29 -12 -50 -12
-34 0 -38 -3 -38 -25 l0 -25 170 0 170 0 0 25 c0 22 -4 25 -33 25 -18 0 -38 5
-45 12 -9 9 -12 99 -12 343 l0 332 38 59 c66 102 145 154 235 154 88 0 150
-56 182 -163 20 -67 22 -706 3 -725 -7 -7 -27 -12 -45 -12 -29 0 -33 -3 -33
-25 l0 -25 170 0 170 0 0 25 c0 22 -4 25 -38 25 -21 0 -43 5 -50 12 -9 9 -12
96 -12 333 0 316 0 321 24 371 92 198 332 251 424 94 l27 -45 3 -368 c2 -271
0 -373 -9 -383 -6 -8 -29 -14 -50 -14 -35 0 -39 -3 -39 -25 l0 -25 175 0 175
0 0 25 c0 22 -4 25 -39 25 -21 0 -43 6 -49 13 -7 8 -12 137 -14 362 l-3 350
-28 57 c-33 68 -82 111 -156 139 -68 25 -182 27 -251 4 -60 -20 -149 -97 -187
-162 l-26 -45 -23 49 c-63 132 -179 193 -325 172z"/>
<path d="M12570 1989 c-119 -20 -236 -100 -310 -212 -165 -252 -73 -597 194
-727 305 -148 658 93 658 450 0 303 -259 536 -542 489z m188 -65 c282 -140
282 -708 0 -848 -107 -53 -233 -25 -318 71 -196 223 -144 659 92 777 72 36
154 36 226 0z"/>
<path d="M2228 1942 c-65 -26 -118 -50 -118 -53 0 -4 16 -10 35 -13 66 -13 65
-9 65 -426 0 -279 -3 -379 -12 -388 -7 -7 -29 -12 -50 -12 -34 0 -38 -3 -38
-25 l0 -25 175 0 175 0 0 25 c0 22 -4 25 -38 25 -21 0 -43 5 -50 12 -9 9 -12
127 -12 470 0 252 -3 458 -7 457 -5 0 -61 -21 -125 -47z"/>
</g>
</svg>
